<?xml version="1.0" standalone="no"?>
<!DOCTYPE svg PUBLIC "-//W3C//DTD SVG 20010904//EN"
 "http://www.w3.org/TR/2001/REC-SVG-20010904/DTD/svg10.dtd">
<svg version="1.0" xmlns="http://www.w3.org/2000/svg"
 width="822.000000pt" height="120.000000pt" viewBox="0 0 822.000000 120.000000"
 preserveAspectRatio="xMidYMid meet">

<g transform="translate(0.000000,120.000000) scale(0.100000,-0.100000)"
fill="#000000" stroke="none">
<path d="M33 1193 c-13 -2 -25 -14 -28 -26 -3 -12 -5 -222 -3 -467 l3 -445 26
-55 c36 -74 86 -130 150 -165 l54 -30 480 0 480 0 3 91 c2 67 -1 94 -11 102
-9 8 -147 12 -455 14 l-441 3 -30 29 c-17 17 -36 46 -41 65 -6 20 -10 175 -10
354 l0 317 476 0 c308 0 482 4 495 10 16 9 19 22 19 93 0 45 -5 89 -10 97 -8
13 -84 15 -572 16 -310 1 -573 0 -585 -3z"/>
<path d="M1312 1190 l-22 -9 2 -588 3 -588 100 0 100 0 5 494 5 494 327 -494
326 -494 153 -3 c136 -2 155 -1 166 15 20 27 19 1132 -1 1159 -12 16 -27 19
-99 19 -47 0 -89 -4 -94 -8 -4 -5 -10 -229 -13 -498 l-5 -490 -305 462 c-168
255 -317 480 -333 501 l-27 38 -133 -1 c-72 0 -142 -4 -155 -9z"/>
<path d="M2603 1193 c-12 -2 -24 -11 -27 -20 -6 -13 391 -1068 431 -1145 l14
-28 148 0 c107 0 151 4 159 13 14 17 442 1132 442 1152 0 23 -42 35 -120 35
-50 0 -73 -5 -89 -17 -13 -12 -86 -187 -205 -498 -159 -414 -186 -477 -194
-455 -5 14 -87 228 -182 475 -122 319 -179 457 -197 473 -20 19 -34 22 -91 21
-37 -1 -77 -4 -89 -6z"/>
<path d="M3882 1190 l-22 -9 2 -588 3 -588 100 0 100 0 3 588 2 587 -26 10
c-31 12 -131 12 -162 0z"/>
<path d="M4452 1190 c-119 -18 -230 -106 -272 -216 -19 -51 -20 -74 -18 -267
l3 -212 488 -3 487 -2 0 -99 c0 -85 -3 -102 -21 -125 -44 -56 -41 -56 -507
-56 -356 0 -432 -2 -441 -14 -8 -9 -11 -46 -9 -103 l3 -88 475 0 475 0 47 23
c94 47 168 145 188 252 13 70 13 376 0 401 -10 18 -26 19 -495 19 l-485 0 0
88 c0 104 18 148 70 174 32 16 75 18 462 18 379 0 428 2 443 16 12 13 15 33
13 97 -3 75 -5 82 -28 94 -19 10 -121 12 -425 12 -220 -1 -424 -5 -453 -9z"/>
<path d="M5470 1188 l-25 -14 -3 -567 c-1 -380 1 -574 8 -588 9 -17 22 -19
100 -19 78 0 91 2 100 19 6 13 10 214 10 584 0 509 -2 566 -16 578 -23 19
-142 23 -174 7z"/>
<path d="M7052 1190 l-22 -9 2 -588 3 -588 100 0 100 0 5 495 5 495 249 -375
c137 -206 284 -430 328 -497 l80 -123 159 0 159 0 0 594 0 595 -46 7 c-56 8
-132 0 -147 -15 -9 -9 -13 -147 -17 -495 l-5 -483 -329 499 -329 498 -136 -1
c-75 0 -146 -4 -159 -9z"/>
<path d="M6157 1165 c-191 -66 -336 -217 -393 -410 -24 -81 -24 -239 0 -319
47 -160 152 -290 296 -369 83 -46 172 -67 285 -67 174 0 294 50 420 175 122
121 175 248 175 420 0 155 -52 290 -152 400 -74 80 -151 131 -252 167 -71 24
-95 28 -196 27 -94 0 -127 -4 -183 -24z m263 -195 c74 -14 133 -46 191 -103
193 -190 136 -505 -111 -621 -58 -27 -75 -30 -155 -30 -67 1 -104 6 -145 22
-80 31 -162 108 -202 190 -31 62 -33 74 -33 167 0 93 2 105 33 167 21 43 51
83 84 113 61 55 89 70 160 89 64 18 109 19 178 6z"/>
<path d="M300 648 c23 -29 61 -77 84 -105 l41 -53 375 0 c279 0 379 3 388 12
16 16 16 170 0 186 -9 9 -127 12 -471 12 l-459 0 42 -52z"/>
</g>
</svg>
